<svg width="16" height="16" viewBox="0 0 16 16" fill="none" xmlns="http://www.w3.org/2000/svg">
<path d="M15.3986 0.912547L14.9712 0.483929C14.2599 -0.225375 13.1898 -0.14572 12.5633 0.662204L5.39531 9.90212L3.23217 7.73628C2.52091 7.02318 1.45403 7.10284 0.824337 7.91076L0.44587 8.39627C0.139181 8.79075 -0.0206886 9.3104 0.00214996 9.84523C0.0249885 10.3763 0.230535 10.8769 0.569851 11.2335L4.53397 15.4552C4.87655 15.8307 5.33658 16.0241 5.8064 15.9976C6.27622 15.9672 6.71668 15.7169 7.02337 15.3035L15.5813 3.74218C15.8815 3.34011 16.0283 2.81287 15.9957 2.28184C15.9598 1.75082 15.7477 1.25772 15.3986 0.912547Z" fill="#0F8A6C"/>
</svg>
