<svg width="41" height="41" viewBox="0 0 41 41" fill="none" xmlns="http://www.w3.org/2000/svg">
<path d="M19.2188 35.875H21.7813V33.3125H19.2188V35.875ZM20.5 5.125C19.7928 5.125 19.2188 5.699 19.2188 6.40625V19.2495H8.96875C8.2615 19.2495 7.6875 19.8235 7.6875 20.5308C7.6875 21.238 8.2615 21.812 8.96875 21.812H20.5C21.2073 21.812 21.7813 21.238 21.7813 20.5308V6.40625C21.7813 5.699 21.2073 5.125 20.5 5.125ZM8.62668 29.2535L10.3999 31.0306L12.1732 29.2535L10.3999 27.4764L8.62668 29.2535ZM12.4191 10.6638L10.6061 8.85218L8.79443 10.6638L10.6061 12.4755L12.4191 10.6638ZM28.2848 10.5998L30.0582 12.3768L31.8314 10.5998L30.0582 8.82271L28.2848 10.5998ZM27.9095 29.1843L29.7212 30.996L31.5329 29.1843L29.7212 27.3727L27.9095 29.1843ZM33.3125 19.2188V21.7813H35.875V19.2188H33.3125ZM20.5 0C9.17757 0 0 9.17891 0 20.5C0 31.8224 9.17757 41 20.5 41C31.8224 41 41 31.8211 41 20.5C41 9.17891 31.8224 0 20.5 0ZM20.5 38.4375C10.5933 38.4375 2.5625 30.4067 2.5625 20.5C2.5625 10.5933 10.5933 2.5625 20.5 2.5625C30.4067 2.5625 38.4375 10.5933 38.4375 20.5C38.4375 30.4067 30.4067 38.4375 20.5 38.4375Z" fill="white"/>
</svg>
